<svg width="14" height="14" viewBox="0 0 14 14" fill="none" xmlns="http://www.w3.org/2000/svg">
<g clip-path="url(#clip0_90_54)">
<path d="M6.42635 1.64127C6.45135 1.50745 6.52235 1.38659 6.62708 1.29962C6.7318 1.21265 6.86364 1.16504 6.99977 1.16504C7.1359 1.16504 7.26774 1.21265 7.37246 1.29962C7.47718 1.38659 7.54819 1.50745 7.57319 1.64127L8.18627 4.88344C8.22981 5.11394 8.34183 5.32596 8.5077 5.49184C8.67358 5.65771 8.8856 5.76973 9.1161 5.81327L12.3583 6.42635C12.4921 6.45135 12.6129 6.52235 12.6999 6.62708C12.7869 6.7318 12.8345 6.86364 12.8345 6.99977C12.8345 7.1359 12.7869 7.26774 12.6999 7.37246C12.6129 7.47718 12.4921 7.54819 12.3583 7.57319L9.1161 8.18627C8.8856 8.22981 8.67358 8.34183 8.5077 8.5077C8.34183 8.67358 8.22981 8.8856 8.18627 9.1161L7.57319 12.3583C7.54819 12.4921 7.47718 12.6129 7.37246 12.6999C7.26774 12.7869 7.1359 12.8345 6.99977 12.8345C6.86364 12.8345 6.7318 12.7869 6.62708 12.6999C6.52235 12.6129 6.45135 12.4921 6.42635 12.3583L5.81327 9.1161C5.76973 8.8856 5.65771 8.67358 5.49184 8.5077C5.32596 8.34183 5.11394 8.22981 4.88344 8.18627L1.64127 7.57319C1.50745 7.54819 1.38659 7.47718 1.29962 7.37246C1.21265 7.26774 1.16504 7.1359 1.16504 6.99977C1.16504 6.86364 1.21265 6.7318 1.29962 6.62708C1.38659 6.52235 1.50745 6.45135 1.64127 6.42635L4.88344 5.81327C5.11394 5.76973 5.32596 5.65771 5.49184 5.49184C5.65771 5.32596 5.76973 5.11394 5.81327 4.88344L6.42635 1.64127Z" stroke="#E181B0" stroke-width="1.16667" stroke-linecap="round" stroke-linejoin="round"/>
<path d="M11.667 1.16699V3.50033" stroke="#E181B0" stroke-width="1.16667" stroke-linecap="round" stroke-linejoin="round"/>
<path d="M12.8333 2.33301H10.5" stroke="#E181B0" stroke-width="1.16667" stroke-linecap="round" stroke-linejoin="round"/>
<path d="M2.33366 12.8333C2.97799 12.8333 3.50033 12.311 3.50033 11.6667C3.50033 11.0223 2.97799 10.5 2.33366 10.5C1.68933 10.5 1.16699 11.0223 1.16699 11.6667C1.16699 12.311 1.68933 12.8333 2.33366 12.8333Z" stroke="#E181B0" stroke-width="1.16667" stroke-linecap="round" stroke-linejoin="round"/>
</g>
<defs>
<clipPath id="clip0_90_54">
<rect width="14" height="14" fill="white"/>
</clipPath>
</defs>
</svg>
