<svg width="26" height="26" viewBox="0 0 26 26" fill="none" xmlns="http://www.w3.org/2000/svg">
<path d="M17.9784 2.11328H7.40232C4.4818 2.11328 2.11426 4.48083 2.11426 7.40134V17.9775C2.11426 20.898 4.4818 23.2655 7.40232 23.2655H17.9784C20.899 23.2655 23.2665 20.898 23.2665 17.9775V7.40134C23.2665 4.48083 20.899 2.11328 17.9784 2.11328Z" stroke="#AC98A4" stroke-width="2.11522" stroke-linecap="round" stroke-linejoin="round"/>
<path d="M16.921 12.022C17.0515 12.9022 16.9012 13.8012 16.4914 14.591C16.0815 15.3808 15.4331 16.0213 14.6383 16.4213C13.8435 16.8214 12.9427 16.9606 12.0642 16.8193C11.1857 16.6779 10.3741 16.2631 9.74493 15.6339C9.11574 15.0047 8.70096 14.1932 8.55959 13.3147C8.41823 12.4361 8.55747 11.5354 8.95753 10.7406C9.35758 9.94578 9.99807 9.29734 10.7879 8.88752C11.5777 8.47769 12.4767 8.32735 13.3569 8.45787C14.2547 8.59101 15.0859 9.00938 15.7277 9.65118C16.3695 10.293 16.7879 11.1242 16.921 12.022Z" stroke="#AC98A4" stroke-width="2.11522" stroke-linecap="round" stroke-linejoin="round"/>
<path d="M18.5068 6.87109H18.5169" stroke="#AC98A4" stroke-width="2.11522" stroke-linecap="round" stroke-linejoin="round"/>
</svg>
